<svg width="151" height="30" viewBox="0 0 151 30" fill="none" xmlns="http://www.w3.org/2000/svg">
<path d="M0 22.5954V0.462524H14.4479V4.36617H4.18099V9.10055H12.6042V13.0042H4.18099V18.6917H14.4479V22.5954H0Z" fill="#F4DFB9"/>
<path d="M15.5254 11.5281C15.5254 4.64272 19.6139 0.000793457 26.2533 0.000793457C31.3262 0.000793457 34.8926 2.70522 36.3067 7.00861L32.0944 8.17658C31.265 5.5034 29.3275 3.93439 26.2533 3.93439C22.0423 3.93439 19.9212 6.91747 19.9212 11.5281C19.9212 16.1388 22.0423 19.1206 26.2533 19.1206C29.3275 19.1206 31.265 17.5529 32.0944 14.8784L36.3067 16.0464C34.8926 20.3511 31.3262 23.0555 26.2533 23.0555C19.6139 23.0555 15.5254 18.4136 15.5254 11.5281Z" fill="#F4DFB9"/>
<path d="M41.2585 29.7958H45.1361L54.4434 5.99371H50.2624L45.9277 17.2919L41.5632 5.99371H37.2285L43.9303 22.456L41.2585 29.7958Z" fill="#F4DFB9"/>
<path d="M60.2227 18.6581H63.1432C63.6966 18.6581 64.7721 18.6581 65.5404 18.5044C68.4297 17.9198 69.6914 14.6919 69.6914 11.5266C69.6914 8.20626 68.3385 5.10079 65.5404 4.54871C64.7721 4.39376 63.6966 4.39376 63.1432 4.39376H60.2227V18.6581ZM55.9805 22.593V0.458862H63.1432C63.4805 0.458862 64.7721 0.458862 65.7865 0.58256C71.1354 1.22839 74.1172 5.90027 74.1172 11.5266C74.1172 17.1516 71.1354 21.8248 65.7865 22.4706C64.7721 22.593 63.4805 22.593 63.1432 22.593H55.9805Z" fill="#F4DFB9"/>
<path d="M77.1934 22.5954V0.462524H91.6413V4.36617H81.3744V9.10055H89.7975V13.0042H81.3744V18.6917H91.6413V22.5954H77.1934Z" fill="#F4DFB9"/>
<path d="M94.7168 22.5954V0.462524H98.959L108.581 15.2177V0.462524H112.824V22.5954H108.581L98.959 7.84014V22.5954H94.7168Z" fill="#F4DFB9"/>
<path d="M115.588 15.83L119.952 15.1842C120.568 17.7362 122.689 19.1503 125.148 19.1503C127.208 19.1503 129.36 18.1659 129.36 16.3222C129.36 15.4303 128.929 14.6308 127.208 14.1086L121.459 12.4172C119.738 11.9263 116.449 10.8495 116.449 6.63858C116.449 2.18155 120.169 -0.00204972 124.718 0.0292003C129.299 0.0903982 132.495 2.36514 133.571 6.51618L129.053 7.28441C128.561 5.13207 126.654 3.99535 124.657 3.93285C122.689 3.87165 120.844 4.85603 120.844 6.42374C120.844 7.86775 122.382 8.42113 123.796 8.79092L127.639 9.8352C129.913 10.4511 133.756 11.5566 133.756 16.0149C133.756 20.7792 129.39 23.054 124.872 23.054C119.952 23.054 116.265 20.3183 115.588 15.83Z" fill="#F4DFB9"/>
<path d="M136.525 22.5954V0.462524H150.973V4.36617H140.706V9.10055H149.13V13.0042H140.706V18.6917H150.973V22.5954H136.525Z" fill="#F4DFB9"/>
</svg>
