<svg width="156" height="28" viewBox="0 0 156 28" fill="none" xmlns="http://www.w3.org/2000/svg">
<path d="M65.4537 17.0381V27.8871H70.2896L70.293 17.0378C70.293 13.9737 69.2367 11.365 67.1524 9.2827C65.0681 7.20032 62.4654 6.14419 59.4172 6.14419C56.3693 6.14419 53.7747 7.19968 51.7055 9.28142C49.636 11.3631 48.5866 13.9724 48.5866 17.0381C48.5866 20.1041 49.6366 22.7224 51.7068 24.8192C53.7227 26.861 56.2462 27.9208 59.2074 27.9678L59.8047 27.9777H61.8585V23.1178C60.9804 23.1153 59.4554 23.1099 59.4168 23.1099C57.7587 23.1099 56.3304 22.5097 55.1707 21.3256C54.0124 20.1454 53.4248 18.7023 53.4248 17.0382C53.4248 15.373 54.0134 13.9372 55.1741 12.7701C56.3334 11.6028 57.7611 11.0108 59.4173 11.0108C61.0705 11.0108 62.5047 11.6017 63.6798 12.7668C64.857 13.9352 65.4537 15.3719 65.4537 17.0381Z" fill="#0A6235"/>
<path d="M37.5527 12.7897C38.7297 13.9578 39.3264 15.3948 39.3264 17.0607V27.9097H44.1655V17.0607C44.1655 13.9963 43.1093 11.3873 41.0253 9.30563C38.9407 7.22298 36.3381 6.16712 33.2899 6.16712C30.2423 6.16712 27.6477 7.22261 25.5782 9.30389C23.5086 11.3855 22.4596 13.9953 22.4596 17.0606C22.4596 20.1266 23.5093 22.7446 25.5799 24.8412C27.5906 26.8788 30.1075 27.9379 33.0601 27.9897L33.6569 27.9998H35.7307V23.1326H33.29C31.6315 23.1326 30.2032 22.5322 29.0435 21.348C27.8851 20.1675 27.298 18.7244 27.298 17.0606C27.298 15.3957 27.886 13.96 29.0467 12.7926C30.206 11.6255 31.6334 11.0336 33.29 11.0336C34.9435 11.0336 36.3777 11.6243 37.5527 12.7897Z" fill="#0A6235"/>
<path d="M44.5592 8.66222H48.1927V1.95798H44.5592V8.66222Z" fill="#0A6235"/>
<path d="M8.95734 19.1556C10.1331 19.1556 11.144 19.5636 11.9623 20.3685C12.7835 21.179 13.1996 22.1911 13.1996 23.3779V27.9099H18.0378V23.3779C18.0378 20.3072 16.8274 17.9148 14.3373 16.0645L13.7599 15.6355L14.2755 15.1324C16.1123 13.3408 17.0186 11.2332 17.0455 8.68905L17.0501 5.55549H12.2135V8.68566L12.2125 8.69593C12.206 9.84385 11.7821 10.8395 10.9527 11.6556C10.1502 12.4457 9.18688 12.8471 8.09075 12.8471C8.04462 12.8471 7.99813 12.8461 7.95191 12.8448L5.432 12.7855V0H0.59375V27.9098H5.432V19.1556H8.95734Z" fill="#0A6235"/>
<path d="M132.539 10.9425V6.07703H129.749L129.446 6.07896C126.417 6.0885 123.837 7.15023 121.778 9.23517C119.708 11.3322 118.658 13.9495 118.658 17.0152C118.658 20.0522 119.715 22.654 121.799 24.7495C123.817 26.7798 126.317 27.8391 129.23 27.8978L129.818 27.9097H132.539V23.0482C131.506 23.0466 129.516 23.0433 129.488 23.0433C127.832 23.0433 126.405 22.4513 125.245 21.2838C124.085 20.1177 123.496 18.6817 123.496 17.0152C123.496 15.3523 124.084 13.9093 125.242 12.7274C126.402 11.5439 127.831 10.9441 129.488 10.9441L132.539 10.9425Z" fill="#006262"/>
<path d="M115.333 9.49597C113.195 7.28889 110.549 6.16728 107.474 6.16728C104.427 6.16728 101.832 7.22277 99.7629 9.30396C97.6933 11.3856 96.6439 13.9953 96.6439 17.0607C96.6439 20.1267 97.6936 22.7446 99.7645 24.8415C101.833 26.9376 104.427 28 107.474 28H114.473V23.1418L107.474 23.1329C105.816 23.1329 104.388 22.5324 103.228 21.3481C102.07 20.1676 101.483 18.7246 101.483 17.0608C101.483 15.3959 102.071 13.9602 103.231 12.7927C104.39 11.6257 105.818 11.0338 107.474 11.0338C107.886 11.0338 108.309 11.0667 108.732 11.1312L109.926 11.3134L104.099 17.152L107.538 20.6112L114.941 13.1978C115.682 12.4328 116.062 11.9033 116.062 11.1493C116.062 10.5564 115.824 10.0154 115.333 9.49597Z" fill="#006262"/>
<path d="M83.7957 27.9099C86.3717 27.9099 88.4755 27.0466 90.2273 25.2708C91.7803 23.6969 92.645 21.7636 92.7992 19.5252L92.8169 15.9239H87.9571V19.2197L87.9541 19.2497C87.8559 20.2473 87.4632 21.1046 86.7873 21.7985C85.9837 22.6242 84.977 23.0434 83.7957 23.0434C82.6157 23.0434 81.6028 22.626 80.7854 21.8026C79.9679 20.9805 79.5531 19.9619 79.5531 18.7761V11.1244H92.8321V6.25759H79.5531V0.185588H74.7148V18.7762C74.7148 21.4 75.5659 23.5311 77.3173 25.2914C79.0684 27.0533 81.1871 27.9099 83.7957 27.9099Z" fill="#006262"/>
<path d="M146.648 11.0338C147.796 11.0338 148.793 11.4505 149.613 12.2729C150.431 13.097 150.845 14.1001 150.845 15.2557L150.888 27.9098H155.73V15.2557C155.73 12.665 154.871 10.5492 153.105 8.78753C151.338 7.02425 149.226 6.16727 146.648 6.16727C145.444 6.16727 144.296 6.38037 143.238 6.8007L142.405 7.13126V0H137.567V27.9098H142.405V15.2557C142.405 14.0681 142.822 13.0558 143.642 12.247C144.46 11.4417 145.471 11.0338 146.648 11.0338Z" fill="#006262"/>
</svg>
