<svg width="47" height="38" viewBox="0 0 47 38" fill="none" xmlns="http://www.w3.org/2000/svg">
<path d="M9.73542 0C7.06042 0 5.08333 2.34167 5.17292 4.87917C5.25625 7.31875 5.14583 10.4792 4.35 13.0542C3.55208 15.6375 2.20417 17.275 0 17.4854V19.8563C2.20417 20.0667 3.55208 21.7042 4.35 24.2875C5.14583 26.8646 5.25625 30.0229 5.17083 32.4625C5.08333 35 7.06042 37.3417 9.7375 37.3417H37.1417C39.8167 37.3417 41.7958 35 41.7083 32.4625C41.6229 30.0229 41.7333 26.8646 42.5271 24.2875C43.3271 21.7042 44.6729 20.0667 46.875 19.8563V17.4854C44.6708 17.275 43.3271 15.6375 42.5271 13.0542C41.7333 10.4792 41.6229 7.31875 41.7083 4.87917C41.7958 2.34167 39.8167 0 37.1417 0H9.73542ZM31.7792 22.9854C31.7792 26.4813 29.1729 28.6021 24.8458 28.6021H17.4792C17.3747 28.6026 17.2711 28.5825 17.1744 28.5428C17.0778 28.5032 16.9899 28.4447 16.9159 28.371C16.842 28.2972 16.7833 28.2095 16.7434 28.1129C16.7035 28.0163 16.6831 27.9128 16.6833 27.8083V9.53333C16.6833 9.42902 16.7039 9.32573 16.744 9.22941C16.784 9.13309 16.8427 9.04563 16.9167 8.97206C16.9906 8.89849 17.0784 8.84027 17.1749 8.80073C17.2715 8.76119 17.3749 8.74112 17.4792 8.74167H24.8021C28.4104 8.74167 30.7792 10.6938 30.7792 13.6958C30.7792 15.8 29.1854 17.6875 27.1562 18.0167V18.1271C29.9187 18.4292 31.7792 20.3438 31.7792 22.9854ZM24.0417 11.2583H19.8417V17.1917H23.3792C26.1146 17.1917 27.6208 16.0896 27.6208 14.1208C27.6208 12.2771 26.325 11.2583 24.0417 11.2583ZM19.8417 19.5438V26.0833H24.1958C27.0437 26.0833 28.55 24.9396 28.55 22.7917C28.55 20.6458 27.0021 19.5438 24.0125 19.5438H19.8417Z" fill="black"/>
</svg>
