<svg width="50" height="50" viewBox="0 0 50 50" fill="none" xmlns="http://www.w3.org/2000/svg">
<path d="M49.0625 22.7221L27.2321 0.946289C26.6295 0.333984 25.8036 0 24.9554 0C24.1071 0 23.2812 0.333985 22.6786 0.935156L18.1362 5.45508L23.8839 11.1885C26.9085 10.1754 29.7656 13.0588 28.7277 16.0535L34.2746 21.5865C38.0915 20.2729 41.1049 25.0377 38.2366 27.8988C35.279 30.849 30.4018 27.576 31.9866 23.7463L26.8192 18.5918V32.1627C29.6429 33.5543 29.308 36.8162 27.8348 38.2857C27.1205 38.9982 26.1384 39.4102 25.1228 39.4102C24.1071 39.4102 23.1362 39.0094 22.4107 38.2857C20.4464 36.3264 21.1719 33.0645 23.6607 32.0514V18.358C21.3393 17.4117 20.9152 14.9402 21.5848 13.3482L15.9152 7.68164L0.948661 22.6107C0.334821 23.223 0 24.0357 0 24.8818C0 25.7279 0.334821 26.5518 0.948661 27.1529L22.779 48.9398C23.3817 49.541 24.1964 49.875 25.0558 49.875C25.9152 49.875 26.7299 49.541 27.3326 48.9398L49.0625 27.2643C49.6652 26.6631 50 25.8393 50 24.9932C50 24.1471 49.6652 23.3232 49.0625 22.7221Z" fill="black"/>
</svg>
