<svg width="38" height="35" viewBox="0 0 38 35" fill="none" xmlns="http://www.w3.org/2000/svg">
<path d="M0.25 1.8125C0.25 1.3981 0.41462 1.00067 0.707646 0.707646C1.00067 0.41462 1.3981 0.25 1.8125 0.25H36.1875C36.6019 0.25 36.9993 0.41462 37.2924 0.707646C37.5854 1.00067 37.75 1.3981 37.75 1.8125C37.75 2.2269 37.5854 2.62433 37.2924 2.91735C36.9993 3.21038 36.6019 3.375 36.1875 3.375H1.8125C1.3981 3.375 1.00067 3.21038 0.707646 2.91735C0.41462 2.62433 0.25 2.2269 0.25 1.8125ZM0.25 17.4375C0.25 17.0231 0.41462 16.6257 0.707646 16.3326C1.00067 16.0396 1.3981 15.875 1.8125 15.875H36.1875C36.6019 15.875 36.9993 16.0396 37.2924 16.3326C37.5854 16.6257 37.75 17.0231 37.75 17.4375C37.75 17.8519 37.5854 18.2493 37.2924 18.5424C36.9993 18.8354 36.6019 19 36.1875 19H1.8125C1.3981 19 1.00067 18.8354 0.707646 18.5424C0.41462 18.2493 0.25 17.8519 0.25 17.4375ZM1.8125 31.5C1.3981 31.5 1.00067 31.6646 0.707646 31.9576C0.41462 32.2507 0.25 32.6481 0.25 33.0625C0.25 33.4769 0.41462 33.8743 0.707646 34.1674C1.00067 34.4604 1.3981 34.625 1.8125 34.625H36.1875C36.6019 34.625 36.9993 34.4604 37.2924 34.1674C37.5854 33.8743 37.75 33.4769 37.75 33.0625C37.75 32.6481 37.5854 32.2507 37.2924 31.9576C36.9993 31.6646 36.6019 31.5 36.1875 31.5H1.8125Z" fill="black"/>
</svg>
