<svg width="15" height="24" viewBox="0 0 15 24" fill="none" xmlns="http://www.w3.org/2000/svg">
<path d="M3.47388 5.36413e-06C3.45997 0.000206025 3.44609 0.00145979 3.43238 0.00375536C3.37783 0.0123763 3.32748 0.0376568 3.28858 0.0759627C3.24967 0.114269 3.22421 0.163627 3.21586 0.216943L1.17557 12.9617L2.51847 10.4664L5.91551 4.15425L3.70826 0.135943L3.70768 0.135755C3.68508 0.0944902 3.65135 0.0600359 3.61015 0.0361118C3.56894 0.0121878 3.52182 -0.00029699 3.47388 5.36413e-06ZM7.32085 2.41969C7.22306 2.41969 7.13392 2.472 7.08839 2.55656L6.07746 4.43512L6.0765 4.43325L1.45529 13.02L2.91212 11.5959L7.58194 7.03012L9.14078 5.50593L7.55389 2.55656C7.5315 2.5152 7.49796 2.48059 7.45689 2.45647C7.41582 2.43235 7.36878 2.41963 7.32085 2.41969ZM11.6814 3.5175C11.6576 3.51683 11.6339 3.51923 11.6108 3.52463C11.564 3.53582 11.5212 3.55936 11.4871 3.59269L9.47853 5.556L7.77675 7.22006L1.13715 13.7113L6.77658 16.7981C6.93512 16.8844 7.11384 16.9298 7.29539 16.9298C7.47694 16.9298 7.65548 16.8844 7.81402 16.7981L13.5777 13.6704L11.9319 3.7305V3.73144C11.9238 3.68507 11.9027 3.64177 11.8711 3.60626C11.8395 3.57075 11.7985 3.54439 11.7526 3.53006C11.7295 3.52282 11.7056 3.51847 11.6814 3.5175ZM13.7057 13.7546L13.6242 13.7612L13.6582 13.7805L13.7057 13.7546ZM2.31733 20.9458C2.26179 20.9448 2.20722 20.9601 2.16072 20.9897C2.11422 21.0194 2.07795 21.062 2.05662 21.1121C2.03211 21.1697 2.0289 21.2337 2.04755 21.2933C2.0662 21.353 2.10555 21.4044 2.15883 21.4387C2.21211 21.4733 2.27603 21.4889 2.33972 21.4826C2.40341 21.4764 2.46291 21.4488 2.5081 21.4046C2.53412 21.38 2.5547 21.3504 2.56854 21.3177C2.58239 21.285 2.58921 21.2499 2.5886 21.2145C2.5886 21.0862 2.49523 20.9758 2.36574 20.9509C2.34978 20.9478 2.33358 20.9461 2.31733 20.9458ZM0 20.9792V23.9353H0.390576V22.6678H1.63857V22.3128H0.390576V21.3423H1.77383V20.9792H0ZM6.61981 20.9792V23.9353H6.99213V23.6546H7.00904C7.07877 23.7607 7.17653 23.8466 7.29203 23.903C7.42375 23.9698 7.57056 24.003 7.71892 23.9998C7.98686 24.0009 8.21842 23.8982 8.41362 23.6917C8.7064 23.382 8.7064 23.2293 8.7064 22.9237C8.70666 22.6182 8.60906 22.3623 8.41362 22.1559C8.2183 21.9494 7.98622 21.8462 7.71738 21.8462C7.56901 21.8437 7.4224 21.8778 7.29107 21.9452C7.17604 22.0015 7.07864 22.087 7.00904 22.1927H6.99213L7.00904 21.9122V20.979L6.61981 20.9792ZM13.9818 21.8445C13.8432 21.8409 13.7055 21.8676 13.5789 21.9227C13.4522 21.9777 13.3398 22.0597 13.2498 22.1627C13.0601 22.3717 12.9579 22.6428 12.9635 22.922C12.9635 23.2333 13.0618 23.4908 13.2583 23.6945C13.4549 23.898 13.7102 23.9998 14.0242 23.9998C14.2504 23.9998 14.4413 23.9473 14.5967 23.8423C14.745 23.7451 14.8615 23.6083 14.9322 23.4482L14.5844 23.307C14.4854 23.5382 14.2959 23.6538 14.0158 23.6538C13.847 23.6554 13.6846 23.5916 13.5639 23.4765C13.4352 23.3575 13.3651 23.1961 13.3537 22.9923H14.9958L15 22.922C15.0004 22.5947 14.9078 22.3332 14.7224 22.1377C14.5369 21.9422 14.2901 21.8445 13.9818 21.8445ZM11.9071 21.8454C11.7009 21.8402 11.4982 21.8987 11.328 22.0125C11.1654 22.124 11.084 22.2692 11.0839 22.448C11.0809 22.5196 11.0956 22.5909 11.1265 22.6558C11.1575 22.7208 11.2039 22.7776 11.262 22.8215C11.3727 22.9097 11.5015 22.9736 11.6397 23.009L12.0594 23.1084C12.249 23.1552 12.3438 23.2445 12.3438 23.3765C12.3442 23.4178 12.3337 23.4585 12.3133 23.4947C12.2929 23.5308 12.2633 23.5612 12.2274 23.583C12.1384 23.638 12.0344 23.6654 11.9292 23.6613C11.6638 23.6613 11.4759 23.5347 11.3655 23.2815L11.0174 23.4217C11.0871 23.5863 11.2018 23.7291 11.3488 23.8346C11.4999 23.9446 11.6915 23.9996 11.9236 23.9996C12.1641 23.9997 12.3603 23.9398 12.5121 23.82C12.5846 23.7673 12.6434 23.6988 12.6837 23.6198C12.7241 23.5409 12.7448 23.4539 12.7443 23.3657C12.7449 23.2309 12.6946 23.1006 12.6029 22.9998C12.5094 22.8923 12.3651 22.8171 12.1699 22.7741L11.7584 22.679C11.5745 22.6377 11.4825 22.5592 11.4825 22.4435C11.4825 22.4043 11.4936 22.3658 11.5145 22.3323C11.5354 22.2988 11.5653 22.2716 11.601 22.2536C11.6902 22.2043 11.7915 22.18 11.8938 22.1833C12.1341 22.1833 12.2926 22.2727 12.3693 22.4516L12.7088 22.3166C12.6498 22.169 12.5404 22.0458 12.3991 21.9678C12.2492 21.8851 12.0793 21.8428 11.9071 21.8454ZM5.28786 21.8462C5.14926 21.8426 5.0116 21.8693 4.88495 21.9244C4.7583 21.9794 4.64587 22.0614 4.55589 22.1643C4.36615 22.3729 4.26363 22.6434 4.26867 22.9222C4.26893 23.2335 4.36729 23.4909 4.56376 23.6945C4.76011 23.898 5.01537 23.9998 5.32955 23.9998C5.55586 23.9998 5.74689 23.9476 5.90263 23.8432C6.05087 23.7459 6.16726 23.609 6.23788 23.4489L5.88976 23.3087C5.79076 23.5399 5.6012 23.6555 5.32109 23.6555C5.15237 23.6569 4.98996 23.593 4.86942 23.4778C4.74058 23.3589 4.67052 23.1977 4.65925 22.994H6.30186L6.30608 22.9237C6.30634 22.5963 6.21374 22.3349 6.02828 22.1394C5.75009 21.8462 5.59601 21.8462 5.28786 21.8462ZM9.84893 21.8469C9.61698 21.8469 9.4303 21.8985 9.28891 22.0016C9.14738 22.1048 9.0526 22.217 9.00457 22.3382L9.36076 22.4868C9.39526 22.3954 9.46238 22.3192 9.5498 22.2722C9.64308 22.2193 9.74933 22.1921 9.85719 22.1936C9.99813 22.1893 10.1356 22.2367 10.2426 22.3263C10.2944 22.3706 10.3355 22.4257 10.3627 22.4874C10.3899 22.5492 10.4025 22.6162 10.3997 22.6833V22.7409C10.2532 22.6584 10.0653 22.6172 9.83606 22.6172C9.57888 22.6172 9.36255 22.6798 9.18708 22.805C9.01162 22.93 8.92388 23.1027 8.92388 23.3229C8.92414 23.5267 8.99842 23.6904 9.14674 23.8142C9.29467 23.9379 9.4791 23.9998 9.70004 23.9998C10.0001 23.9998 10.228 23.8848 10.3836 23.6548H10.4005V23.9355H10.7751V22.7126C10.7767 22.4365 10.6889 22.2232 10.5119 22.0727C10.3352 21.9222 10.1141 21.8469 9.84893 21.8469ZM3.96762 21.8628C3.84028 21.866 3.71626 21.9031 3.60894 21.9701C3.49674 22.0295 3.41015 22.1262 3.36495 22.2427H3.34823V21.9123H2.97476V23.9355H3.36514L3.36456 22.8292C3.36456 22.653 3.41912 22.5105 3.52825 22.4017C3.57582 22.3505 3.63377 22.3095 3.69842 22.2814C3.76308 22.2532 3.83303 22.2384 3.90384 22.238C3.97441 22.2356 4.04486 22.2455 4.1119 22.2671L4.26041 21.9123C4.16719 21.8769 4.06764 21.8602 3.96762 21.8628ZM2.11752 21.9123V23.9355H2.5081V21.9123H2.11752ZM7.65437 22.1915C7.74219 22.1917 7.82904 22.2095 7.90948 22.2439C7.98991 22.2784 8.06219 22.3286 8.12179 22.3916C8.25192 22.5251 8.31698 22.702 8.31698 22.9222C8.31698 23.1422 8.25192 23.3191 8.12179 23.4528C8.06289 23.5165 7.99086 23.5672 7.91043 23.6017C7.83 23.6362 7.74299 23.6538 7.65513 23.6531V23.6548C7.56695 23.6558 7.47955 23.6385 7.39874 23.604C7.31792 23.5696 7.24553 23.5187 7.18637 23.4549C7.0579 23.3228 6.99354 23.1453 6.99329 22.9224C6.99329 22.6994 7.05765 22.5219 7.18637 22.3899C7.24621 22.3272 7.31868 22.2772 7.39924 22.243C7.47981 22.2089 7.56654 22.1914 7.65437 22.1915ZM5.27863 22.1936C5.47652 22.1915 5.62573 22.2427 5.72627 22.3473C5.82694 22.4517 5.88144 22.5617 5.88976 22.6773L4.6848 22.6807C4.71771 22.543 4.79412 22.4188 4.90324 22.3258C5.00759 22.2383 5.14106 22.1912 5.27863 22.1936ZM13.9733 22.1936C14.1711 22.1915 14.3203 22.2427 14.421 22.3473C14.5215 22.4517 14.576 22.5617 14.5844 22.6773L13.3795 22.6807C13.4124 22.543 13.4888 22.4188 13.5979 22.3258C13.7022 22.2383 13.8358 22.1913 13.9733 22.1936ZM9.90484 22.9305C10.1258 22.9306 10.2914 22.9748 10.4018 23.063C10.4016 23.1421 10.3836 23.2201 10.3493 23.2917C10.315 23.3633 10.265 23.4268 10.203 23.4776C10.0854 23.5894 9.92797 23.6523 9.76382 23.6531V23.6548C9.6571 23.6556 9.55265 23.6247 9.46431 23.5663C9.42307 23.5417 9.38914 23.5071 9.36588 23.4658C9.34262 23.4245 9.33086 23.3779 9.33175 23.3308C9.33254 23.2764 9.34593 23.223 9.37092 23.1744C9.39591 23.1258 9.43184 23.0834 9.47603 23.0503C9.57209 22.9704 9.71502 22.9303 9.90484 22.9305Z" fill="black"/>
</svg>
