<svg width="44" height="24" viewBox="0 0 44 24" fill="none" xmlns="http://www.w3.org/2000/svg">
<path d="M22 0C9.6635 0 0 5.27077 0 12C0 18.7292 9.6635 24 22 24C34.3365 24 44 18.7292 44 12C44 5.27077 34.3365 0 22 0ZM19.7157 3.69231H22.1173L21.3547 7.38462H23.4997C24.86 7.38462 25.773 7.57662 26.2937 8.05477C26.8015 8.52738 26.9555 9.30277 26.752 10.3588L25.7987 14.7692H23.3567L24.2348 10.6911C24.3399 10.1286 24.299 9.744 24.112 9.53723C23.9268 9.33231 23.518 9.23077 22.9057 9.23077H20.9825L19.822 14.7692H17.4167L19.7157 3.69231ZM9.16667 7.38462H14.0543C16.3845 7.38462 17.7962 8.95754 17.2443 11.304C16.6027 14.0308 14.8867 14.7692 11.726 14.7692H10.2153L9.73683 17.5385H7.30767L9.16667 7.38462ZM28.4167 7.38462H33.3043C35.6345 7.38462 37.0462 8.95754 36.4943 11.304C35.8527 14.0308 34.1348 14.7692 30.976 14.7692H29.4653L28.9868 17.5385H26.5577L28.4167 7.38462ZM11.2475 9.23077L10.5563 12.9231H12.1238C13.4805 12.9231 14.7418 12.768 14.9527 10.7317C15.0315 9.94154 14.7052 9.23077 13.1377 9.23077H11.2475ZM30.4975 9.23077L29.8063 12.9231H31.3738C32.7305 12.9231 33.9918 12.768 34.2027 10.7317C34.2815 9.94154 33.957 9.23077 32.3877 9.23077H30.4975Z" fill="black"/>
</svg>
